<?xml version="1.0" encoding="iso-8859-1"?>
<!-- Generator: Adobe Illustrator 24.1.0, SVG Export Plug-In . SVG Version: 6.00 Build 0)  -->
<svg version="1.1" xmlns="http://www.w3.org/2000/svg" xmlns:xlink="http://www.w3.org/1999/xlink" x="0px" y="0px"
	 viewBox="0 0 512 512" style="enable-background:new 0 0 512 512;" xml:space="preserve">
<g id="_x34_1_x2C__Confetti_x2C__party_x2C__fun_x2C__confetti_x2C__christmas_x2C__celebrate_x2C__fun">
	<g>
		<path d="M3.082,507.32c-2.511-3.079-2.961-7.353-1.147-10.887l193.395-376.78c3.318-6.463,12.136-7.283,16.646-1.754
			l214.578,263.098c4.551,5.58,1.878,14.02-5.065,15.953L13.516,510.632C9.658,511.706,5.574,510.375,3.082,507.32z
			 M206.141,142.388L30.166,485.231l371.225-103.442L206.141,142.388z"/>
		<path d="M83.433,490.435c-5.495-0.559-9.496-5.465-8.938-10.96L90.06,326.244c0.558-5.494,5.467-9.489,10.959-8.938
			c5.495,0.559,9.496,5.465,8.938,10.96L94.393,481.497C93.841,486.933,88.999,490.989,83.433,490.435z"/>
		<path d="M149.199,472.451c-5.931,0-10.56-5.115-9.961-11.012l29.252-287.987c0.558-5.494,5.462-9.492,10.959-8.938
			c5.494,0.559,9.496,5.465,8.938,10.96l-29.252,287.987C158.613,468.611,154.267,472.451,149.199,472.451z"/>
		<path d="M212.033,454.599c-5.495-0.559-9.496-5.465-8.938-10.96l27.967-275.328c0.558-5.494,5.465-9.485,10.959-8.938
			c5.495,0.559,9.496,5.465,8.938,10.96l-27.967,275.328C222.441,451.097,217.599,455.153,212.033,454.599z"/>
		<path d="M275.89,436.8c-5.495-0.559-9.496-5.465-8.938-10.96l19.287-189.876c0.558-5.494,5.465-9.486,10.959-8.938
			c5.495,0.559,9.496,5.465,8.938,10.96L286.85,427.862C286.298,433.298,281.456,437.354,275.89,436.8z"/>
		<path d="M340.634,418.764c-5.494-0.559-9.496-5.465-8.938-10.96l10.487-103.246c0.558-5.494,5.465-9.491,10.959-8.938
			c5.494,0.559,9.496,5.465,8.938,10.96l-10.487,103.246C351.041,415.262,346.199,419.318,340.634,418.764z"/>
		<path d="M412.412,229.414c-4.188-1.106-7.188-4.784-7.43-9.109l-2.18-38.988l-37.753-9.975c-4.188-1.106-7.188-4.784-7.43-9.109
			c-0.242-4.326,2.329-8.315,6.368-9.882l36.406-14.122l-2.18-38.986c-0.242-4.326,2.329-8.315,6.368-9.882
			c4.04-1.567,8.627-0.354,11.366,3.003l24.68,30.261l36.406-14.121c4.04-1.568,8.627-0.354,11.366,3.003
			c2.738,3.357,3.003,8.096,0.656,11.737l-21.153,32.822l24.68,30.261c2.738,3.357,3.003,8.096,0.656,11.737
			c-2.347,3.643-6.773,5.36-10.96,4.251l-37.753-9.974l-21.153,32.822C421.034,228.792,416.612,230.525,412.412,229.414z
			 M399.914,159.867l15.021,3.969c4.188,1.106,7.188,4.784,7.43,9.109l0.867,15.514l8.417-13.06c2.347-3.643,6.771-5.36,10.96-4.251
			l15.022,3.969l-9.82-12.041c-2.738-3.357-3.003-8.096-0.656-11.737l8.417-13.06l-14.485,5.618
			c-4.04,1.566-8.628,0.354-11.366-3.003l-9.82-12.04l0.867,15.512c0.242,4.326-2.329,8.315-6.368,9.882L399.914,159.867z"/>
		<path d="M308.581,166.944c-4.425-3.305-5.332-9.571-2.026-13.996c9.454-12.654,10.06-21.612,10.762-31.984
			c0.8-11.822,1.707-25.222,14.694-42.605c12.988-17.383,25.58-22.052,36.689-26.171c9.748-3.614,18.167-6.736,27.621-19.391
			c3.306-4.424,9.571-5.331,13.997-2.025c4.424,3.306,5.331,9.571,2.026,13.996c-12.988,17.384-25.581,22.053-36.69,26.172
			c-9.748,3.614-18.167,6.736-27.62,19.39c-9.454,12.654-10.06,21.612-10.762,31.984c-0.8,11.822-1.707,25.222-14.694,42.605
			C319.26,169.357,312.994,170.241,308.581,166.944z"/>
		<path d="M383.479,280.314c-2.349-4.998-0.2-10.954,4.798-13.303c10.462-4.916,18.128-3.482,23.726-2.435
			c4.463,0.835,6.922,1.294,11.544-0.877c4.622-2.172,5.838-4.357,8.045-8.326c2.768-4.977,6.559-11.793,17.02-16.707
			c10.461-4.915,18.126-3.481,23.724-2.434c4.463,0.835,6.922,1.294,11.542-0.876c4.999-2.349,10.954-0.2,13.303,4.799
			c2.348,4.999,0.199,10.955-4.799,13.303c-10.461,4.914-18.127,3.479-23.723,2.434c-4.463-0.834-6.921-1.294-11.542,0.876
			c-4.623,2.172-5.838,4.357-8.045,8.326c-2.768,4.977-6.559,11.793-17.02,16.707c-10.46,4.914-18.127,3.48-23.725,2.435
			c-4.463-0.835-6.923-1.294-11.545,0.877C391.793,287.456,385.832,285.323,383.479,280.314z"/>
		<path d="M476.979,358.531c-20.455,0-36.182-17.603-34.139-37.716c1.915-18.853,18.74-32.537,37.536-30.613
			c18.832,1.913,32.528,18.701,30.614,37.536C509.173,345.628,494.073,358.531,476.979,358.531z M462.738,322.837
			c-0.856,8.419,5.749,15.676,14.177,15.684c7.24,0.007,13.43-5.445,14.178-12.804c0.796-7.834-4.9-14.821-12.737-15.617
			C470.518,309.304,463.534,315.001,462.738,322.837z"/>
		<path d="M358.499,227.45c-5.535,0-10-4.493-10-10c0-5.564,4.541-10.012,10-9.993c5.652,0.02,10,4.604,10,9.993
			C368.499,222.956,364.011,227.45,358.499,227.45z"/>
		<path d="M274.198,124.089c-5.446,0-10-4.421-10-10c0-5.504,4.486-9.995,10-9.995c5.405,0,10,4.372,10,9.995
			C284.198,119.597,279.711,124.089,274.198,124.089z"/>
		<path d="M433.927,78.071c-3.905-3.905-3.905-10.237,0-14.143c5.917-5.917,7.333-9.856,9.125-14.846
			c2.104-5.855,4.721-13.143,13.804-22.226c9.083-9.083,16.371-11.701,22.226-13.805c4.989-1.792,8.929-3.207,14.845-9.124
			c3.905-3.904,10.237-3.904,14.143,0c3.905,3.905,3.905,10.237,0,14.143c-9.083,9.083-16.371,11.701-22.226,13.805
			c-4.989,1.792-8.929,3.207-14.845,9.124c-5.917,5.917-7.333,9.856-9.125,14.846c-2.104,5.855-4.721,13.143-13.804,22.226
			C444.164,81.976,437.833,81.975,433.927,78.071z"/>
	</g>
</g>
<g id="Layer_1">
</g>
</svg>
